<?xml version="1.0" encoding="utf-8"?>
<!-- Svg Vector Icons : http://www.onlinewebfonts.com/icon -->
<!DOCTYPE svg PUBLIC "-//W3C//DTD SVG 1.1//EN" "http://www.w3.org/Graphics/SVG/1.1/DTD/svg11.dtd">
<svg version="1.1" xmlns="http://www.w3.org/2000/svg" xmlns:xlink="http://www.w3.org/1999/xlink" x="0px" y="0px" viewBox="0 0 1000 1000" enable-background="new 0 0 1000 1000" xml:space="preserve">
<metadata> Svg Vector Icons : http://www.onlinewebfonts.com/icon </metadata>
<g><path d="M784.3,363.8c21.9,0,41.4,4.2,58.5,12.6c51.4,23,77.1,64.2,77.1,123.6v96.8c0,34.3-4.2,68.2-12.6,101.7l-46.5,185.4c-7.7,31.4-24.1,56.9-49.5,76.6c-25.3,19.7-54,29.5-86.1,29.5H360c-38.6,0-71.6-13.7-99-41c-27.3-27.3-41-60.3-41-99V630.7L89.3,287.3c-6.2-16.4-9.3-33-9.3-49.8c0-38.6,13.7-71.6,41-99c27.3-27.3,60.3-41,99-41c29.2,0,55.7,8.3,79.6,24.9c23.9,16.6,40.9,38.4,51.1,65.4l9.3,24.1V150c0-38.6,13.7-71.6,41-99c27.3-27.3,60.3-41,99-41s71.6,13.7,99,41c27.3,27.3,41,60.3,41,99v142.7c9.8-1.8,18.6-2.7,26.3-2.7c25.2,0,48.4,6.7,69.7,20C757.3,323.3,773.4,341.2,784.3,363.8L784.3,363.8z M666.2,359.9c-12,0-23.1,3.3-33.1,9.9c-10,6.6-17.6,15.3-22.7,26.2l-40.5,89.1l-38.8,84.8h30.1c18.2,0,34.6,5.7,49.2,17.2c14.6,11.5,23.7,26.2,27.4,44L722,446.3c3.6-7.3,5.5-15.7,5.5-25.1c0-16.8-6-31.1-18.1-43.2C697.3,366,682.9,359.9,666.2,359.9L666.2,359.9z M787.1,433.8c-8,0-15.4,1.4-22.1,4.3c-6.7,2.9-12,5.8-15.9,8.8c-3.9,2.9-8.2,8.3-12.9,16.1c-4.7,7.8-7.8,13.3-9.3,16.7s-4.6,10.1-9.3,20.2l-72.2,158.6c-3.6,7.3-5.5,15.7-5.5,25.1c0,16.8,6,31.1,18.1,43.2c12,12,26.4,18.1,43.2,18.1c12,0,23.1-3.3,33.1-9.9c10-6.6,17.6-15.3,22.7-26.3l87.5-192.5c3.3-6.6,4.9-13.5,4.9-20.8c0-18.2-5.8-33.1-17.5-44.6c-11.7-11.5-26.6-17.2-44.9-17.2L787.1,433.8z M149.9,237.4c0,8,1.4,16.4,4.3,25.1L289.9,618v37.7l55.8-60.7c15.7-16.8,35-25.1,58-25.1h108.3l58-127.4V149.9c0-19.3-6.8-35.8-20.5-49.5c-13.7-13.7-30.2-20.5-49.5-20.5c-19.3,0-35.8,6.8-49.5,20.5c-13.7,13.7-20.5,30.2-20.5,49.5v350h-35L285.4,212.3c-5.1-13.5-13.6-24.3-25.7-32.6c-12-8.2-25.3-12.3-39.9-12.3c-19.3,0-35.8,6.8-49.5,20.5C156.7,201.6,149.9,218.1,149.9,237.4L149.9,237.4z M725.3,919.9c16.1,0,30.4-4.9,42.9-14.8c12.6-9.8,20.8-22.6,24.8-38.3l46.5-185.4c6.9-26.6,10.4-54.9,10.4-84.8V547l-77.1,169.5c-6.2,13.9-15.9,25-29,33.4s-27.3,12.6-42.6,12.6c-19.3,0-36.4-6.3-51.1-18.9c-14.7-12.6-23.6-28.4-26.5-47.3c-16.1,20.8-36.8,31.2-62.4,31.2H447.4v-17.5h113.8c16.8,0,31.5-6,44.3-18.1c12.8-12,19.2-26.4,19.1-43.2c0-16.8-5.7-31.1-16.9-43.2c-11.2-12-25.3-18.1-42.1-18.1H403.5c-17.9,0-32.8,6.6-44.9,19.7l-68.9,74.3v168.4c0,19.3,6.8,35.8,20.5,49.5c13.7,13.7,30.2,20.5,49.5,20.5h365.3L725.3,919.9z"/></g>
</svg>